<?xml version="1.0" encoding="utf-8"?>
<!-- Generator: Adobe Illustrator 17.0.0, SVG Export Plug-In . SVG Version: 6.00 Build 0)  -->
<!DOCTYPE svg PUBLIC "-//W3C//DTD SVG 1.1//EN" "http://www.w3.org/Graphics/SVG/1.1/DTD/svg11.dtd">
<svg version="1.1" id="pag_par" xmlns="http://www.w3.org/2000/svg" xmlns:xlink="http://www.w3.org/1999/xlink" x="0px" y="0px"
	 width="260.5px" height="148.833px" viewBox="0 0 260.5 148.833" enable-background="new 0 0 260.5 148.833" xml:space="preserve">
<g>
	<g>
		<g>
			<path fill="#F27221" d="M216.731,144.005c-7.435,0-14.1-1.969-19.851-5.859c-5.271,3.91-13.405,4.793-19.679,4.793
				c-3.447,0-7.082-0.275-10.236-0.775c-3.088-0.588-5.365-1.318-6.98-2.25c-4.263,1.965-9.287,2.996-14.66,2.996
				c-7.922,0-15.756-2.324-21.43-6.289c-2.35,1.396-4.811,2.551-7.469,3.506c-3.96,1.406-8.031,2.117-12.113,2.117
				c-4.565,0-9.131-0.885-13.568-2.629c-0.048-0.02-0.095-0.039-0.141-0.061c-2.107-0.955-4.048-2.035-5.875-3.273
				c-4.377,3.793-11.766,5.992-20.496,5.992c-6.791,0-13.018-1.336-17.138-3.627c-2.146,0.957-4.544,1.627-7.276,2.033
				c-3.26,0.436-6.381,0.65-9.325,0.65c-5.205,0-9.8-0.676-13.655-2.012c-0.035-0.012-0.068-0.023-0.103-0.037
				c-4.653-1.805-8.208-5.324-9.753-9.656c-1.406-3.945-0.983-8.229,1.191-12.061c0.045-0.078,0.092-0.154,0.144-0.229
				c0.425-0.615,0.979-1.154,1.517-1.674c0.275-0.268,0.705-0.686,0.918-0.949c0.13-1.299,0.217-2.545,0.287-3.609
				c0.13-2.807,0.241-5.41,0.248-7.979c-4.197-3.602-5.779-7.799-5.11-13.422c0.024-0.203,0.069-0.404,0.135-0.598
				c3.013-8.988,13.547-14.93,30.464-17.184c0.838-0.094,1.588-0.138,2.297-0.138c3.172,0,5.975,0.876,8.537,2.673
				c0.963-0.229,2.693-0.816,3.812-1.197c0.366-0.125,0.708-0.24,1.031-0.349c-0.706-1.946-1.146-3.172-1.285-3.666
				c-1.743-6.935-1.483-14.368,0.726-21.584c0.013-0.042,0.027-0.085,0.041-0.127C57.235,32.636,71.198,22.63,86.678,22.63
				c1.436,0,2.886,0.088,4.312,0.263c3.494,0.5,6.576,1.808,9.321,3.327c0.021-0.46,0.061-0.928,0.115-1.404
				c0.016-0.139,0.041-0.275,0.076-0.412c1.941-7.479,8.214-12.83,18.645-15.901c0.035-0.011,0.07-0.021,0.105-0.029
				c6.327-1.615,11.805-2.4,16.748-2.4c0.606,0,1.214,0.013,1.817,0.036c0.073,0.003,0.147,0.009,0.221,0.018
				c7.422,0.852,12.311,6.511,12.166,14.081c-0.081,4.276-0.377,8.521-0.688,13.013c-0.521,7.513-1.112,16.028-0.809,26.752
				c0.001,0.044,0.002,0.089,0,0.133c-0.029,1.896-0.064,4.284-0.076,6.75c2.125,1.586,3.75,3.728,4.627,6.064
				c2.285,0.182,4.379,0.836,6.175,1.928c3.396-0.861,6.952-1.313,10.369-1.313c9.829,0,18.085,3.63,23.239,10.087
				c3.998-3.799,8.506-6.617,13.44-8.396l0.808-0.268l0.741-0.224c3.744-1.115,7.42-1.679,10.929-1.679
				c1.084,0,2.172,0.054,3.235,0.158c14.845,1.849,25.508,12.49,26.609,26.488c0.006,0.078,0.01,0.156,0.01,0.234
				c0,0.064-0.002,0.172-0.008,0.234c-0.107,1.666-0.338,3.084-0.729,4.418c2.576,3.02,3.884,6.477,3.889,10.301
				c0.007,5.932-3.361,12.604-9.245,18.305c-3.491,3.25-7.551,5.861-12.106,7.805c-4.353,1.764-8.646,2.738-13.181,2.998
				C217.391,143.999,216.731,144.005,216.731,144.005z"/>
			<path fill="#FFFFFF" d="M136,9.073c0.565,0,1.132,0.012,1.696,0.034c5.877,0.675,9.621,5.118,9.509,11.043
				c-0.218,11.399-1.984,22.691-1.496,39.907c-0.045,2.78-0.08,5.599-0.08,8.37v0.045c2.68,1.505,4.923,4.331,5.301,7.433
				c0.337-0.023,0.675-0.036,1.013-0.036c2.463,0,4.949,0.649,6.93,2.239c3.468-1.009,7.205-1.575,10.932-1.574
				c9.062,0,18.046,3.352,22.829,11.828c4.104-4.632,9.075-8.227,14.87-10.316l0.73-0.242l0.657-0.197
				c3.308-0.984,6.669-1.555,10.069-1.555c0.977,0,1.957,0.048,2.939,0.146c12.522,1.56,22.851,10.212,23.914,23.737v0.043
				c-0.115,1.785-0.394,3.396-1.063,5.051l-0.095,0.297c8.42,8.121,3.106,18.803-4.021,25.713
				c-3.294,3.064-7.078,5.443-11.195,7.199c-3.955,1.602-7.875,2.516-12.177,2.764c-0.178,0.002-0.354,0.002-0.53,0.002
				c-7.354,0-14.191-2.107-20.033-6.707c-3.969,4.35-12.133,5.641-19.494,5.641c-3.657,0-7.118-0.318-9.768-0.738
				c-1.974-0.377-5.746-1.205-7.133-2.807c-4.305,2.375-9.596,3.516-14.979,3.516c-7.816,0-15.824-2.406-21.267-6.932
				c-2.727,1.807-5.588,3.225-8.648,4.326c-3.662,1.301-7.385,1.938-11.098,1.938c-4.201,0-8.393-0.818-12.471-2.42
				c-2.688-1.219-5.133-2.676-7.471-4.521c-3.625,4.854-12.001,6.973-20.139,6.973c-6.781,0-13.398-1.473-16.961-4.062
				c-2.494,1.367-5.162,2.092-7.896,2.5c-2.809,0.375-5.835,0.619-8.883,0.619c-4.373,0-8.792-0.504-12.674-1.848
				c-7.036-2.727-11.11-10.258-7.036-17.439c0.715-1.031,2.732-2.398,2.912-3.615c0.147-1.4,0.248-2.756,0.337-4.131
				c0.149-3.199,0.29-6.408,0.247-9.617c-4.02-3.016-5.746-6.383-5.123-11.623c3.502-10.449,18.609-13.908,28.016-15.162
				c0.654-0.072,1.286-0.11,1.9-0.11c2.754,0,5.133,0.767,7.477,2.625c0.097,0.099,0.279,0.142,0.531,0.142
				c1.86,0,7.463-2.403,9.268-2.623c0.057,0-2.048-5.63-2.294-6.499c-1.622-6.466-1.3-13.331,0.709-19.891
				c4.895-13.759,17.848-22.907,31.915-22.906c1.308,0,2.626,0.079,3.947,0.24c4.435,0.637,8.271,2.841,12.051,5.311l1.654,1.204
				c0.01,0.022,0.02,0.046,0.029,0.068v-0.047l-0.029-0.021c-1.025-2.365-1.206-4.765-0.924-7.228
				c2.004-7.724,9.477-11.683,16.588-13.777C125.111,10.074,130.604,9.073,136,9.073 M136,3.073c-5.195,0-10.917,0.815-17.49,2.494
				c-0.07,0.019-0.142,0.037-0.211,0.059c-12.903,3.801-18.108,10.588-20.136,16.201c-2.05-0.864-4.271-1.548-6.687-1.895
				c-0.041-0.006-0.082-0.011-0.123-0.016c-1.546-0.189-3.119-0.285-4.675-0.285c-16.747,0-31.846,10.808-37.569,26.896
				c-0.029,0.084-0.058,0.169-0.084,0.254c-2.369,7.737-2.643,15.729-0.791,23.106c0.014,0.059,0.029,0.117,0.047,0.175
				c0.064,0.231,0.166,0.542,0.316,0.978c-0.172,0.055-0.34,0.108-0.502,0.159c-2.738-1.623-5.713-2.416-9.023-2.416
				c-0.817,0-1.678,0.05-2.559,0.146c-0.045,0.005-0.09,0.011-0.135,0.017C18.25,71.362,6.867,78.003,3.466,88.149
				c-0.131,0.391-0.221,0.791-0.27,1.199c-0.72,6.055,0.943,11.014,5.077,15.074c-0.032,2.082-0.126,4.23-0.233,6.537
				c-0.048,0.74-0.105,1.566-0.18,2.434c-0.041,0.041-0.082,0.078-0.119,0.115c-0.609,0.592-1.3,1.264-1.891,2.117
				c-0.103,0.146-0.198,0.299-0.287,0.455c-2.611,4.605-3.111,9.771-1.408,14.549c1.838,5.154,6.027,9.326,11.494,11.445
				c0.068,0.027,0.137,0.051,0.206,0.076c4.173,1.443,9.097,2.176,14.637,2.176c3.076,0,6.331-0.225,9.674-0.67
				c0.031-0.004,0.063-0.008,0.095-0.012c2.453-0.367,4.673-0.93,6.709-1.707c4.51,2.117,10.674,3.332,17.262,3.332
				c4.365,0,13.863-0.6,20.68-5.316c1.412,0.85,2.891,1.623,4.453,2.332c0.093,0.041,0.187,0.082,0.281,0.119
				c4.789,1.883,9.723,2.836,14.666,2.836c4.425,0,8.834-0.77,13.104-2.283c2.239-0.807,4.342-1.74,6.356-2.824
				c5.996,3.703,13.621,5.773,21.551,5.773c5.25,0,10.211-0.92,14.557-2.684c1.709,0.762,3.82,1.369,6.432,1.867
				c0.062,0.012,0.122,0.023,0.184,0.033c3.305,0.523,7.107,0.812,10.707,0.812c6.103,0,13.871-0.816,19.695-4.225
				c5.851,3.516,12.5,5.291,19.832,5.291c0.205,0,0.409,0,0.614-0.004c0.088,0,0.175-0.004,0.263-0.008
				c4.866-0.281,9.475-1.326,14.086-3.193c0.032-0.014,0.065-0.027,0.1-0.043c4.877-2.08,9.227-4.879,12.929-8.324
				c0.03-0.027,0.06-0.057,0.089-0.084c3.799-3.682,10.168-11.234,10.157-20.463c-0.005-3.98-1.248-7.723-3.628-10.996
				c0.23-1.1,0.382-2.262,0.463-3.525c0.01-0.129,0.014-0.256,0.014-0.385c0-0.158-0.008-0.357-0.02-0.514
				c-1.217-15.457-12.934-27.201-29.154-29.222c-0.049-0.006-0.099-0.012-0.148-0.017c-1.161-0.115-2.352-0.174-3.532-0.174
				c-3.797,0-7.761,0.605-11.781,1.803l-0.665,0.199c-0.056,0.017-0.109,0.033-0.167,0.052l-0.729,0.241
				c-0.051,0.018-0.1,0.035-0.15,0.053c-4.398,1.587-8.477,3.93-12.182,6.996c-5.729-5.702-13.943-8.862-23.48-8.863
				c-3.271,0-6.66,0.387-9.939,1.125c-1.409-0.707-2.94-1.209-4.563-1.499c-0.907-1.743-2.153-3.35-3.657-4.708
				c0.016-1.947,0.041-3.781,0.065-5.298c0.002-0.089,0.001-0.178-0.002-0.267c-0.3-10.578,0.286-19.016,0.803-26.459
				c0.313-4.531,0.612-8.812,0.695-13.164c0.173-9.059-5.923-16.097-14.824-17.119c-0.146-0.017-0.293-0.028-0.44-0.034
				C137.304,3.087,136.651,3.073,136,3.073L136,3.073z"/>
		</g>
	</g>
	<path fill="#FFFFFF" d="M69.211,131.546c-2.23,0.205-4.926,0.25-8.158,0.205c-7.986-0.1-11.408-1.605-11.355-5.154
		c0.045-1.662,1.188-2.531,2.148-3.703c1.178-1.154,1.977-6.174,2.021-13.076c0.093-9.031-1.606-12.592-5.989-12.646
		c-4.025-0.043-5.398,2.301-5.449,9.486l-0.102,9.484c0,2.969,0.231,4.268,1.23,5.873c0.809,1.178,1.873,2.385,1.873,3.951
		c-0.057,3.836-5.01,5.58-15.844,5.445c-8.668-0.102-12.998-1.906-12.954-5.445c0.041-1.852,0.146-2.041,2.321-3.6
		c1.965-1.457,2.57-5.457,2.703-19.361c0.1-8.402-5.321-5.688-5.271-9.912c0.045-5.34,18.813-9.922,22.908-9.868
		c1.706,0,3.223,1.604,3.223,3.503c0,0.199,0,0.588-0.088,1.16c0,1.266,0.13,3.064,1.805,3.064c2.09,0,4.461-7.728,14.149-7.621
		c3.801,0,7.461,1.205,10.124,3.246c0.236,0.246,0.468,0.441,0.705,0.625c3.424,2.98,4.377,6.189,4.658,13.68l0.512,16.764
		c0,1.754,0.584,3.207,1.441,4.236c1.141,1.264,2.643,2.371,2.603,4.316C78.381,129.462,76.006,131.063,69.211,131.546"/>
	<path fill="#FFFFFF" d="M135.581,131.171c-4.559-0.777-6.793-2.434-6.744-5.002c0-1.848,0.101-2.053,2.339-3.605
		c1.938-1.461,2.512-5.494,2.645-19.396c0.104-7.83-4.715-5.93-5.219-9.143v-1.162c0.37-1.994,3.334-3.898,6.98-5.385
		c5.806-2.504,13.397-4.088,15.87-4.088c1.759,0.033,3.262,1.584,3.227,3.545c0,0.186,0,0.574-0.08,1.154
		c0,1.266,0.186,3.068,1.799,3.068c2.08,0.057,4.455-7.768,14.146-7.636c3.857,0.045,7.465,1.226,10.126,3.251
		c3.978,3.227,5.132,6.232,5.415,14.307l0.507,16.758c-0.026,1.746,0.532,3.229,1.386,4.24c1.15,1.307,2.674,2.383,2.674,4.334
		c-0.047,4.328-4.192,5.674-17.401,5.533c-7.978-0.098-11.396-1.605-11.341-5.154c0-1.654,1.143-2.523,2.08-3.693
		c1.195-1.16,2.006-6.129,2.095-13.123c0.097-9.039-1.611-12.553-6.026-12.652c-4.045,0-5.378,2.287-5.458,9.482l-0.116,9.529
		c-0.033,2.975,0.303,4.279,1.307,5.887c0.752,1.162,1.785,2.381,1.785,3.988c-0.047,3.801-4.94,5.547-15.771,5.402
		C139.386,131.612,137.293,131.462,135.581,131.171"/>
	<path fill="#FFFFFF" d="M138.297,27.375c0.418-3.881,0.524-6.214,0.524-6.987c0.037-3.264-1.1-4.721-3.662-4.721
		c-1.43,0-3.811,0.141-6.557,0.532c-2.953,0.395-6.271,1.022-9.273,1.946c-5.063,1.549-9.264,3.981-9.32,7.389
		c0,1.937,0.861,3.112,3.472,4.708c3.424,2.099,3.862,4.384,3.714,19.988c-0.127,16.72-0.802,21.136-3.269,22.159
		c-1.525,0.738-3.09,1.373-3.09,3.316c-0.057,3.207,2.514,5.01,8.493,5.785c2.056,0.295,4.525,0.424,7.47,0.424h1.803
		c2.803,0,5.086-0.093,6.98-0.33c5.091-0.678,6.938-2.238,7.034-5.295c0-1.703-0.476-2.378-2.89-3.397
		c-2.086-0.976-2.563-2.14-2.538-6.917l0.104-7.627l0.144-15.315C137.53,37.836,137.723,32.594,138.297,27.375
		c0.418-3.881,0.524-6.214,0.524-6.987"/>
	<path fill="#FFFFFF" d="M101.899,110.308l17.431-5.854l3.37-1.164c2.664-0.924,3.383-4.271,2.006-8.461
		c-0.851-2.627-2.801-5.285-5.376-7.436c-1.654-1.357-3.606-2.475-5.606-3.246c-5.084-2-10.408-1.957-16.48,0.137
		c-13.188,4.414-20.256,18.752-15.908,32.184c3.947,12.344,17.335,18.916,30.215,14.59c2.833-0.975,5.455-2.283,7.78-3.887
		c2.769-1.945,5.134-4.334,7.087-7.201c1.24-1.855,1.982-3.549,2.186-5.104v-1.564c-0.048-0.332-0.148-0.623-0.203-0.912
		c-0.604-1.758-2.979-4.076-4.978-3.404c-0.722,0.293-0.907,0.529-2.003,1.939c-0.563,0.826-1.281,1.611-2.089,2.336
		c-1.749,1.605-4.041,2.965-5.931,3.602c-4.088,1.354-10.934-0.15-12.455-4.865C100.665,111.13,100.944,110.632,101.899,110.308"/>
	<path fill="#F27221" d="M106.785,96.317c-1.093-3.248-3.84-4.938-6.74-3.957c-2.803,0.922-4.414,4.527-3.376,7.529
		c0.573,1.854,1.53,2.295,3.573,1.557l4.596-1.502c1.913-0.631,2.523-1.801,1.947-3.635V96.317z"/>
	<path fill="#FFFFFF" d="M214.276,110.632l17.44-5.832l3.375-1.164c2.661-0.93,3.375-4.283,1.979-8.463
		c-0.851-2.627-2.781-5.297-5.354-7.436c-1.66-1.367-3.62-2.475-5.608-3.266c-5.086-1.994-10.41-1.947-16.469,0.152
		c-13.201,4.416-20.275,18.752-15.925,32.186c3.942,12.346,17.347,18.904,30.2,14.578c2.859-0.977,5.478-2.285,7.802-3.887
		c2.753-1.943,5.129-4.328,7.085-7.197c1.239-1.842,1.996-3.543,2.178-5.098v-1.551c-0.05-0.354-0.141-0.639-0.182-0.934
		c-0.632-1.75-3.004-4.078-4.998-3.408c-0.708,0.299-0.909,0.527-1.994,1.945c-0.574,0.83-1.275,1.609-2.089,2.338
		c-1.748,1.609-4.039,2.961-5.938,3.604c-4.08,1.363-10.931-0.15-12.438-4.861C213.043,111.462,213.34,110.972,214.276,110.632"/>
	<path fill="#F27221" d="M219.168,96.659c-1.08-3.268-3.843-4.947-6.74-3.969c-2.788,0.932-4.41,4.514-3.373,7.529
		c0.585,1.861,1.527,2.291,3.563,1.566l4.606-1.508c1.909-0.631,2.521-1.795,1.943-3.66v0.042H219.168z"/>
	<path fill="#FFFFFF" d="M81.083,59.962l17.453-5.83l3.363-1.169c2.65-0.936,3.361-4.284,1.98-8.457
		c-0.827-2.618-2.791-5.3-5.344-7.445c-1.671-1.364-3.623-2.479-5.623-3.26c-5.07-1.981-10.396-1.943-16.484,0.149
		c-13.17,4.429-20.261,18.743-15.907,32.19c3.943,12.342,17.332,18.915,30.213,14.575c2.854-0.972,5.464-2.277,7.803-3.877
		c2.747-1.965,5.117-4.332,7.078-7.207c1.229-1.849,1.979-3.544,2.172-5.103v-1.56c-0.043-0.341-0.131-0.618-0.192-0.917
		c-0.61-1.753-2.985-4.08-4.981-3.396c-0.713,0.281-0.897,0.523-2.002,1.934c-0.564,0.83-1.285,1.611-2.074,2.341
		c-1.771,1.599-4.047,2.96-5.953,3.588c-4.074,1.364-10.938-0.143-12.443-4.854C79.86,60.783,80.139,60.301,81.083,59.962"/>
	<path fill="#F27221" d="M85.979,45.987c-1.09-3.261-3.846-4.937-6.748-3.969c-2.803,0.921-4.396,4.529-3.371,7.537
		c0.568,1.846,1.515,2.287,3.565,1.557l4.591-1.497c1.91-0.636,2.539-1.808,1.967-3.649L85.979,45.987z"/>
</g>
</svg>
